<svg width="167" height="207" viewBox="0 0 167 207" fill="none" xmlns="http://www.w3.org/2000/svg">
<path d="M67.8038 122.598L67.2158 120.834H63.3098L62.7218 122.598H60.6358L64.0658 112.798H66.4598L69.9038 122.598H67.8038ZM63.9258 119.028H66.6138L65.2698 115.024L63.9258 119.028ZM75.886 112.798H77.692V122.598H75.886V121.772C75.354 122.453 74.598 122.794 73.618 122.794C72.6753 122.794 71.868 122.439 71.196 121.73C70.5333 121.011 70.202 120.134 70.202 119.098C70.202 118.062 70.5333 117.189 71.196 116.48C71.868 115.761 72.6753 115.402 73.618 115.402C74.598 115.402 75.354 115.742 75.886 116.424V112.798ZM72.554 120.526C72.9273 120.89 73.394 121.072 73.954 121.072C74.514 121.072 74.976 120.89 75.34 120.526C75.704 120.152 75.886 119.676 75.886 119.098C75.886 118.519 75.704 118.048 75.34 117.684C74.976 117.31 74.514 117.124 73.954 117.124C73.394 117.124 72.9273 117.31 72.554 117.684C72.19 118.048 72.008 118.519 72.008 119.098C72.008 119.676 72.19 120.152 72.554 120.526ZM85.3077 121.73C84.589 122.439 83.7117 122.794 82.6757 122.794C81.6397 122.794 80.7623 122.439 80.0437 121.73C79.3343 121.011 78.9797 120.134 78.9797 119.098C78.9797 118.062 79.3343 117.189 80.0437 116.48C80.7623 115.761 81.6397 115.402 82.6757 115.402C83.7117 115.402 84.589 115.761 85.3077 116.48C86.0263 117.189 86.3857 118.062 86.3857 119.098C86.3857 120.134 86.0263 121.011 85.3077 121.73ZM81.3177 120.484C81.6817 120.848 82.1343 121.03 82.6757 121.03C83.217 121.03 83.6697 120.848 84.0337 120.484C84.3977 120.12 84.5797 119.658 84.5797 119.098C84.5797 118.538 84.3977 118.076 84.0337 117.712C83.6697 117.348 83.217 117.166 82.6757 117.166C82.1343 117.166 81.6817 117.348 81.3177 117.712C80.963 118.076 80.7857 118.538 80.7857 119.098C80.7857 119.658 80.963 120.12 81.3177 120.484ZM91.7302 115.402C92.6728 115.402 93.4755 115.761 94.1382 116.48C94.8102 117.189 95.1462 118.062 95.1462 119.098C95.1462 120.134 94.8102 121.011 94.1382 121.73C93.4755 122.439 92.6728 122.794 91.7302 122.794C90.7502 122.794 89.9942 122.453 89.4622 121.772V122.598H87.6562V112.798H89.4622V116.424C89.9942 115.742 90.7502 115.402 91.7302 115.402ZM90.0082 120.526C90.3722 120.89 90.8342 121.072 91.3942 121.072C91.9542 121.072 92.4162 120.89 92.7802 120.526C93.1535 120.152 93.3402 119.676 93.3402 119.098C93.3402 118.519 93.1535 118.048 92.7802 117.684C92.4162 117.31 91.9542 117.124 91.3942 117.124C90.8342 117.124 90.3722 117.31 90.0082 117.684C89.6442 118.048 89.4622 118.519 89.4622 119.098C89.4622 119.676 89.6442 120.152 90.0082 120.526ZM97.9458 119.84C98.1885 120.717 98.8465 121.156 99.9198 121.156C100.611 121.156 101.133 120.922 101.488 120.456L102.944 121.296C102.253 122.294 101.236 122.794 99.8918 122.794C98.7345 122.794 97.8058 122.444 97.1058 121.744C96.4058 121.044 96.0558 120.162 96.0558 119.098C96.0558 118.043 96.4012 117.166 97.0918 116.466C97.7825 115.756 98.6692 115.402 99.7518 115.402C100.779 115.402 101.623 115.756 102.286 116.466C102.958 117.175 103.294 118.052 103.294 119.098C103.294 119.331 103.271 119.578 103.224 119.84H97.9458ZM97.9178 118.44H101.488C101.385 117.964 101.171 117.609 100.844 117.376C100.527 117.142 100.163 117.026 99.7518 117.026C99.2665 117.026 98.8652 117.152 98.5478 117.404C98.2305 117.646 98.0205 117.992 97.9178 118.44ZM51.8966 139.598L51.3086 137.834H47.4026L46.8146 139.598H44.7286L48.1586 129.798H50.5526L53.9966 139.598H51.8966ZM48.0186 136.028H50.7066L49.3626 132.024L48.0186 136.028ZM58.4251 131.338C57.4358 131.263 56.9411 131.66 56.9411 132.528V132.598H58.4251V134.334H56.9411V139.598H55.1351V134.334H54.1271V132.598H55.1351V132.528C55.1351 131.538 55.4104 130.787 55.9611 130.274C56.5118 129.76 57.3331 129.536 58.4251 129.602V131.338ZM63.4756 134.334H61.8936V137.246C61.8936 137.488 61.9543 137.666 62.0756 137.778C62.1969 137.89 62.3743 137.955 62.6076 137.974C62.8409 137.983 63.1303 137.978 63.4756 137.96V139.598C62.2343 139.738 61.3569 139.621 60.8436 139.248C60.3396 138.874 60.0876 138.207 60.0876 137.246V134.334H58.8696V132.598H60.0876V131.184L61.8936 130.638V132.598H63.4756V134.334ZM66.0562 136.84C66.2989 137.717 66.9569 138.156 68.0302 138.156C68.7209 138.156 69.2435 137.922 69.5982 137.456L71.0542 138.296C70.3635 139.294 69.3462 139.794 68.0022 139.794C66.8449 139.794 65.9162 139.444 65.2162 138.744C64.5162 138.044 64.1662 137.162 64.1662 136.098C64.1662 135.043 64.5115 134.166 65.2022 133.466C65.8929 132.756 66.7795 132.402 67.8622 132.402C68.8889 132.402 69.7335 132.756 70.3962 133.466C71.0682 134.175 71.4042 135.052 71.4042 136.098C71.4042 136.331 71.3809 136.578 71.3342 136.84H66.0562ZM66.0282 135.44H69.5982C69.4955 134.964 69.2809 134.609 68.9542 134.376C68.6369 134.142 68.2729 134.026 67.8622 134.026C67.3769 134.026 66.9755 134.152 66.6582 134.404C66.3409 134.646 66.1309 134.992 66.0282 135.44ZM74.471 133.802C74.639 133.354 74.9143 133.018 75.297 132.794C75.689 132.57 76.123 132.458 76.599 132.458V134.474C76.0483 134.408 75.5536 134.52 75.115 134.81C74.6856 135.099 74.471 135.58 74.471 136.252V139.598H72.665V132.598H74.471V133.802ZM83.1712 137.75H87.3012V139.598H81.2392V129.798H87.2312V131.646H83.1712V133.732H86.8812V135.552H83.1712V137.75ZM96.223 131.198C95.2337 131.123 94.739 131.52 94.739 132.388V132.598H96.223V134.334H94.739V139.598H92.933V134.334H90.861V139.598H89.055V134.334H88.047V132.598H89.055V132.528C89.055 131.538 89.3304 130.787 89.881 130.274C90.4317 129.76 91.253 129.536 92.345 129.602V131.338C91.3557 131.263 90.861 131.66 90.861 132.528V132.598H92.933V132.388C92.933 131.398 93.2084 130.647 93.759 130.134C94.319 129.62 95.1404 129.396 96.223 129.462V131.198ZM98.3218 136.84C98.5645 137.717 99.2225 138.156 100.296 138.156C100.986 138.156 101.509 137.922 101.864 137.456L103.32 138.296C102.629 139.294 101.612 139.794 100.268 139.794C99.1105 139.794 98.1818 139.444 97.4818 138.744C96.7818 138.044 96.4318 137.162 96.4318 136.098C96.4318 135.043 96.7771 134.166 97.4678 133.466C98.1585 132.756 99.0451 132.402 100.128 132.402C101.154 132.402 101.999 132.756 102.662 133.466C103.334 134.175 103.67 135.052 103.67 136.098C103.67 136.331 103.646 136.578 103.6 136.84H98.3218ZM98.2938 135.44H101.864C101.761 134.964 101.546 134.609 101.22 134.376C100.902 134.142 100.538 134.026 100.128 134.026C99.6425 134.026 99.2411 134.152 98.9238 134.404C98.6065 134.646 98.3965 134.992 98.2938 135.44ZM108.208 139.794C107.153 139.794 106.271 139.439 105.562 138.73C104.862 138.02 104.512 137.143 104.512 136.098C104.512 135.052 104.862 134.175 105.562 133.466C106.271 132.756 107.153 132.402 108.208 132.402C108.889 132.402 109.51 132.565 110.07 132.892C110.63 133.218 111.055 133.657 111.344 134.208L109.79 135.118C109.65 134.828 109.435 134.6 109.146 134.432C108.866 134.264 108.549 134.18 108.194 134.18C107.653 134.18 107.205 134.362 106.85 134.726C106.495 135.08 106.318 135.538 106.318 136.098C106.318 136.648 106.495 137.106 106.85 137.47C107.205 137.824 107.653 138.002 108.194 138.002C108.558 138.002 108.88 137.922 109.16 137.764C109.449 137.596 109.664 137.367 109.804 137.078L111.372 137.974C111.064 138.524 110.63 138.968 110.07 139.304C109.51 139.63 108.889 139.794 108.208 139.794ZM116.331 134.334H114.749V137.246C114.749 137.488 114.81 137.666 114.931 137.778C115.052 137.89 115.23 137.955 115.463 137.974C115.696 137.983 115.986 137.978 116.331 137.96V139.598C115.09 139.738 114.212 139.621 113.699 139.248C113.195 138.874 112.943 138.207 112.943 137.246V134.334H111.725V132.598H112.943V131.184L114.749 130.638V132.598H116.331V134.334ZM119.12 134.586C119.12 134.772 119.241 134.926 119.484 135.048C119.736 135.16 120.039 135.262 120.394 135.356C120.749 135.44 121.103 135.552 121.458 135.692C121.813 135.822 122.111 136.046 122.354 136.364C122.606 136.681 122.732 137.078 122.732 137.554C122.732 138.272 122.461 138.828 121.92 139.22C121.388 139.602 120.721 139.794 119.918 139.794C118.481 139.794 117.501 139.238 116.978 138.128L118.546 137.246C118.751 137.852 119.209 138.156 119.918 138.156C120.562 138.156 120.884 137.955 120.884 137.554C120.884 137.367 120.758 137.218 120.506 137.106C120.263 136.984 119.965 136.877 119.61 136.784C119.255 136.69 118.901 136.574 118.546 136.434C118.191 136.294 117.888 136.074 117.636 135.776C117.393 135.468 117.272 135.085 117.272 134.628C117.272 133.937 117.524 133.396 118.028 133.004C118.541 132.602 119.176 132.402 119.932 132.402C120.501 132.402 121.019 132.532 121.486 132.794C121.953 133.046 122.321 133.41 122.592 133.886L121.052 134.726C120.828 134.25 120.455 134.012 119.932 134.012C119.699 134.012 119.503 134.063 119.344 134.166C119.195 134.268 119.12 134.408 119.12 134.586Z" fill="#828282"/>
<path d="M42.9414 3.7832H124.702V84.7881H42.9414V3.7832Z" fill="url(#paint0_radial_179_253)"/>
<path d="M42.9414 3.78375H124.702V84.7886H42.9414V3.78375ZM39.2258 88.5724H128.435V0H39.2258V88.5724ZM102.337 42.6945C104.231 42.6945 104.909 42.6945 105.088 42.6217C105.088 42.3488 105.159 42.1669 105.159 41.985C105.159 39.9476 104.195 36.1639 100.336 36.1639C96.7637 36.1639 95.2453 39.3473 94.8701 42.7127H102.337V42.6945ZM94.7987 47.8789C94.8701 52.9906 97.246 56.4287 102.909 56.4287C105.106 56.4287 106.999 56.1195 108.964 55.2645C109.232 55.1554 109.411 55.1917 109.411 55.5374V60.2671C109.411 60.6491 109.304 60.831 109.036 61.0311C107.071 62.0134 104.606 62.4682 101.569 62.4682C91.7619 62.4682 88.0821 55.0826 88.0821 46.8784C88.0821 37.9466 92.6194 30.6338 100.604 30.6338C108.714 30.6338 111.537 37.5646 111.537 43.2038C111.537 45.0229 111.429 46.4964 111.233 47.2241C111.162 47.5333 111.054 47.6424 110.751 47.7152C110 47.8244 107.821 47.9881 104.552 47.9881H94.8166V47.8789H94.7987ZM74.8632 44.0224C73.8271 39.8203 71.2905 30.6702 70.3616 26.2315H70.2902C69.5042 30.652 67.4678 38.1467 65.9494 44.0224H74.8632ZM64.431 50.1528L61.5014 61.4677C61.43 61.7769 61.3228 61.8861 60.9477 61.8861H55.4636C55.0885 61.8861 55.017 61.7769 55.0885 61.3221L65.6457 23.7394C65.8243 23.0663 65.9494 22.5206 66.0208 20.6287C66.0208 20.3558 66.128 20.2467 66.3245 20.2467H74.1308C74.3988 20.2467 74.5059 20.3194 74.5774 20.6287L86.3851 61.3949C86.4565 61.7042 86.3851 61.8861 86.0814 61.8861H79.9543C79.6506 61.8861 79.4719 61.7769 79.4005 61.5041L76.3459 50.1528H64.431Z" fill="#D8A1FF"/>
<path d="M12.0853 183.19C12.3851 182.269 13.687 182.269 13.9869 183.19L15.738 188.564C15.8721 188.976 16.2559 189.254 16.6888 189.254H22.3495C23.3189 189.254 23.7213 190.495 22.9363 191.064L18.3614 194.379C18.0099 194.633 17.8629 195.086 17.9973 195.498L19.7459 200.865C20.0459 201.786 18.9926 202.553 18.2084 201.985L13.6228 198.662C13.2728 198.409 12.7994 198.409 12.4494 198.662L7.86382 201.985C7.07956 202.553 6.02627 201.786 6.3263 200.865L8.07487 195.498C8.20932 195.086 8.06224 194.633 7.71078 194.379L3.13591 191.064C2.3509 190.495 2.75323 189.254 3.72263 189.254H9.38338C9.81631 189.254 10.2001 188.976 10.3342 188.564L12.0853 183.19Z" fill="black"/>
<path d="M47.1827 183.19C47.4825 182.269 48.7845 182.269 49.0843 183.19L50.8354 188.564C50.9695 188.976 51.3533 189.254 51.7862 189.254H57.447C58.4164 189.254 58.8187 190.495 58.0337 191.064L53.4588 194.379C53.1073 194.633 52.9603 195.086 53.0947 195.498L54.8433 200.865C55.1433 201.786 54.09 202.553 53.3058 201.985L48.7202 198.662C48.3702 198.409 47.8968 198.409 47.5468 198.662L42.9612 201.985C42.177 202.553 41.1237 201.786 41.4237 200.865L43.1723 195.498C43.3067 195.086 43.1597 194.633 42.8082 194.379L38.2333 191.064C37.4483 190.495 37.8506 189.254 38.82 189.254H44.4808C44.9137 189.254 45.2975 188.976 45.4316 188.564L47.1827 183.19Z" fill="black"/>
<path d="M82.2799 183.19C82.5797 182.269 83.8816 182.269 84.1815 183.19L85.9326 188.564C86.0667 188.976 86.4504 189.254 86.8834 189.254H92.5441C93.5135 189.254 93.9158 190.495 93.1308 191.064L88.556 194.379C88.2045 194.633 88.0574 195.086 88.1919 195.498L89.9405 200.865C90.2405 201.786 89.1872 202.553 88.4029 201.985L83.8174 198.662C83.4673 198.409 82.994 198.409 82.6439 198.662L78.0584 201.985C77.2741 202.553 76.2209 201.786 76.5209 200.865L78.2694 195.498C78.4039 195.086 78.2568 194.633 77.9054 194.379L73.3305 191.064C72.5455 190.495 72.9478 189.254 73.9172 189.254H79.578C80.0109 189.254 80.3946 188.976 80.5288 188.564L82.2799 183.19Z" fill="black"/>
<path d="M117.377 183.19C117.677 182.269 118.979 182.269 119.279 183.19L121.03 188.564C121.164 188.976 121.548 189.254 121.981 189.254H127.641C128.611 189.254 129.013 190.495 128.228 191.064L123.653 194.379C123.302 194.633 123.155 195.086 123.289 195.498L125.038 200.865C125.338 201.786 124.284 202.553 123.5 201.985L118.915 198.662C118.565 198.409 118.091 198.409 117.741 198.662L113.156 201.985C112.371 202.553 111.318 201.786 111.618 200.865L113.367 195.498C113.501 195.086 113.354 194.633 113.003 194.379L108.428 191.064C107.643 190.495 108.045 189.254 109.014 189.254H114.675C115.108 189.254 115.492 188.976 115.626 188.564L117.377 183.19Z" fill="black"/>
<path d="M152.474 183.19C152.774 182.269 154.076 182.269 154.376 183.19L156.127 188.564C156.261 188.976 156.645 189.254 157.077 189.254H162.738C163.708 189.254 164.11 190.495 163.325 191.064L158.75 194.379C158.399 194.633 158.252 195.086 158.386 195.498L160.135 200.865C160.435 201.786 159.381 202.553 158.597 201.985L154.011 198.662C153.661 198.409 153.188 198.409 152.838 198.662L148.252 201.985C147.468 202.553 146.415 201.786 146.715 200.865L148.464 195.498C148.598 195.086 148.451 194.633 148.099 194.379L143.525 191.064C142.74 190.495 143.142 189.254 144.111 189.254H149.772C150.205 189.254 150.589 188.976 150.723 188.564L152.474 183.19Z" fill="#E5E5E5"/>
<defs>
<radialGradient id="paint0_radial_179_253" cx="0" cy="0" r="1" gradientUnits="userSpaceOnUse" gradientTransform="translate(69.8939 21.9444) scale(62.1407 61.2673)">
<stop stop-color="#442F55" stop-opacity="0.98"/>
<stop offset="1" stop-color="#12002C"/>
</radialGradient>
</defs>
</svg>
