<svg width="167" height="206" viewBox="0 0 167 206" fill="none" xmlns="http://www.w3.org/2000/svg">
<path d="M71.9498 115.62H68.0298V117.944H71.8378V119.792H68.0298V123.572H66.0978V113.772H71.9498V115.62ZM74.1695 115.732C73.8709 115.732 73.6095 115.625 73.3855 115.41C73.1709 115.186 73.0635 114.925 73.0635 114.626C73.0635 114.328 73.1709 114.066 73.3855 113.842C73.6095 113.618 73.8709 113.506 74.1695 113.506C74.4775 113.506 74.7389 113.618 74.9535 113.842C75.1775 114.066 75.2895 114.328 75.2895 114.626C75.2895 114.925 75.1775 115.186 74.9535 115.41C74.7389 115.625 74.4775 115.732 74.1695 115.732ZM73.2735 123.572V116.572H75.0795V123.572H73.2735ZM82.0945 116.572H83.8585V123.236C83.8585 124.319 83.4992 125.145 82.7805 125.714C82.0712 126.284 81.2125 126.568 80.2045 126.568C79.4485 126.568 78.7812 126.424 78.2025 126.134C77.6332 125.845 77.1945 125.42 76.8865 124.86L78.4265 123.978C78.7812 124.632 79.3925 124.958 80.2605 124.958C80.8299 124.958 81.2779 124.809 81.6045 124.51C81.9312 124.212 82.0945 123.787 82.0945 123.236V122.48C81.5625 123.19 80.8159 123.544 79.8545 123.544C78.8652 123.544 78.0345 123.199 77.3625 122.508C76.6999 121.808 76.3685 120.959 76.3685 119.96C76.3685 118.971 76.7045 118.126 77.3765 117.426C78.0485 116.726 78.8745 116.376 79.8545 116.376C80.8159 116.376 81.5625 116.731 82.0945 117.44V116.572ZM78.7205 121.346C79.0939 121.701 79.5652 121.878 80.1345 121.878C80.7039 121.878 81.1705 121.701 81.5345 121.346C81.9079 120.982 82.0945 120.52 82.0945 119.96C82.0945 119.41 81.9079 118.957 81.5345 118.602C81.1705 118.238 80.7039 118.056 80.1345 118.056C79.5652 118.056 79.0939 118.238 78.7205 118.602C78.3565 118.957 78.1745 119.41 78.1745 119.96C78.1745 120.52 78.3565 120.982 78.7205 121.346ZM93.2382 116.376C94.0409 116.376 94.6802 116.638 95.1562 117.16C95.6415 117.683 95.8842 118.383 95.8842 119.26V123.572H94.0782V119.386C94.0782 118.966 93.9755 118.64 93.7702 118.406C93.5649 118.173 93.2755 118.056 92.9022 118.056C92.4915 118.056 92.1695 118.192 91.9362 118.462C91.7122 118.733 91.6002 119.125 91.6002 119.638V123.572H89.7942V119.386C89.7942 118.966 89.6915 118.64 89.4862 118.406C89.2809 118.173 88.9915 118.056 88.6182 118.056C88.2169 118.056 87.8949 118.192 87.6522 118.462C87.4189 118.733 87.3022 119.125 87.3022 119.638V123.572H85.4962V116.572H87.3022V117.314C87.7222 116.689 88.3709 116.376 89.2482 116.376C90.1069 116.376 90.7415 116.712 91.1522 117.384C91.6189 116.712 92.3142 116.376 93.2382 116.376ZM102.738 116.572H104.544V123.572H102.738V122.746C102.197 123.428 101.436 123.768 100.456 123.768C99.5227 123.768 98.7201 123.414 98.0481 122.704C97.3854 121.986 97.0541 121.108 97.0541 120.072C97.0541 119.036 97.3854 118.164 98.0481 117.454C98.7201 116.736 99.5227 116.376 100.456 116.376C101.436 116.376 102.197 116.717 102.738 117.398V116.572ZM99.4061 121.5C99.7701 121.864 100.232 122.046 100.792 122.046C101.352 122.046 101.814 121.864 102.178 121.5C102.551 121.127 102.738 120.651 102.738 120.072C102.738 119.494 102.551 119.022 102.178 118.658C101.814 118.285 101.352 118.098 100.792 118.098C100.232 118.098 99.7701 118.285 99.4061 118.658C99.0421 119.022 98.8601 119.494 98.8601 120.072C98.8601 120.651 99.0421 121.127 99.4061 121.5Z" fill="#828282"/>
<g clip-path="url(#clip0_179_264)">
<path d="M71.2115 88.9903C79.25 88.9903 85.7701 82.3505 85.7701 74.1646V59.3389H71.2115C63.173 59.3389 56.6528 65.9786 56.6528 74.1646C56.6528 82.3505 63.173 88.9903 71.2115 88.9903Z" fill="#0ACF83"/>
<path d="M56.6528 44.4956C56.6528 36.3097 63.173 29.6699 71.2115 29.6699H85.7701V59.3395H71.2115C63.173 59.3213 56.6528 52.6816 56.6528 44.4956Z" fill="#A259FF"/>
<path d="M56.6528 14.8257C56.6528 6.63973 63.173 0 71.2115 0H85.7701V29.6696H71.2115C63.173 29.6696 56.6528 23.0117 56.6528 14.8257Z" fill="#F24E1E"/>
<path d="M85.7881 0H100.347C108.385 0 114.905 6.63973 114.905 14.8257C114.905 23.0117 108.385 29.6514 100.347 29.6514H85.7881V0Z" fill="#FF7262"/>
<path d="M114.905 44.4956C114.905 52.6816 108.385 59.3213 100.347 59.3213C92.3082 59.3213 85.7881 52.6816 85.7881 44.4956C85.7881 36.3097 92.3082 29.6699 100.347 29.6699C108.385 29.6699 114.905 36.3097 114.905 44.4956Z" fill="#1ABCFE"/>
</g>
<path d="M12.0853 182.19C12.3851 181.269 13.687 181.269 13.9869 182.19L15.738 187.564C15.8721 187.976 16.2559 188.254 16.6888 188.254H22.3495C23.3189 188.254 23.7213 189.495 22.9363 190.064L18.3614 193.379C18.0099 193.633 17.8629 194.086 17.9973 194.498L19.7459 199.865C20.0459 200.786 18.9926 201.553 18.2084 200.985L13.6228 197.662C13.2728 197.409 12.7994 197.409 12.4494 197.662L7.86382 200.985C7.07956 201.553 6.02627 200.786 6.3263 199.865L8.07487 194.498C8.20932 194.086 8.06224 193.633 7.71078 193.379L3.13591 190.064C2.3509 189.495 2.75323 188.254 3.72263 188.254H9.38338C9.81631 188.254 10.2001 187.976 10.3342 187.564L12.0853 182.19Z" fill="black"/>
<path d="M47.1822 182.19C47.4821 181.269 48.784 181.269 49.0838 182.19L50.8349 187.564C50.969 187.976 51.3528 188.254 51.7857 188.254H57.4465C58.4159 188.254 58.8182 189.495 58.0332 190.064L53.4583 193.379C53.1069 193.633 52.9598 194.086 53.0942 194.498L54.8428 199.865C55.1428 200.786 54.0895 201.553 53.3053 200.985L48.7197 197.662C48.3697 197.409 47.8963 197.409 47.5463 197.662L42.9607 200.985C42.1765 201.553 41.1232 200.786 41.4232 199.865L43.1718 194.498C43.3062 194.086 43.1592 193.633 42.8077 193.379L38.2328 190.064C37.4478 189.495 37.8502 188.254 38.8196 188.254H44.4803C44.9132 188.254 45.297 187.976 45.4311 187.564L47.1822 182.19Z" fill="black"/>
<path d="M82.2794 182.19C82.5792 181.269 83.8811 181.269 84.181 182.19L85.9321 187.564C86.0662 187.976 86.45 188.254 86.8829 188.254H92.5436C93.513 188.254 93.9154 189.495 93.1304 190.064L88.5555 193.379C88.204 193.633 88.0569 194.086 88.1914 194.498L89.94 199.865C90.24 200.786 89.1867 201.553 88.4024 200.985L83.8169 197.662C83.4669 197.409 82.9935 197.409 82.6435 197.662L78.0579 200.985C77.2737 201.553 76.2204 200.786 76.5204 199.865L78.269 194.498C78.4034 194.086 78.2563 193.633 77.9049 193.379L73.33 190.064C72.545 189.495 72.9473 188.254 73.9167 188.254H79.5775C80.0104 188.254 80.3942 187.976 80.5283 187.564L82.2794 182.19Z" fill="black"/>
<path d="M117.377 182.19C117.676 181.269 118.978 181.269 119.278 182.19L121.029 187.564C121.163 187.976 121.547 188.254 121.98 188.254H127.641C128.61 188.254 129.013 189.495 128.228 190.064L123.653 193.379C123.301 193.633 123.154 194.086 123.289 194.498L125.037 199.865C125.337 200.786 124.284 201.553 123.5 200.985L118.914 197.662C118.564 197.409 118.091 197.409 117.741 197.662L113.155 200.985C112.371 201.553 111.318 200.786 111.618 199.865L113.366 194.498C113.501 194.086 113.354 193.633 113.002 193.379L108.427 190.064C107.642 189.495 108.044 188.254 109.014 188.254H114.675C115.108 188.254 115.491 187.976 115.625 187.564L117.377 182.19Z" fill="black"/>
<path d="M152.474 182.19C152.774 181.269 154.075 181.269 154.375 182.19L156.126 187.564C156.261 187.976 156.644 188.254 157.077 188.254H162.738C163.707 188.254 164.11 189.495 163.325 190.064L158.75 193.379C158.398 193.633 158.251 194.086 158.386 194.498L160.134 199.865C160.434 200.786 159.381 201.553 158.597 200.985L154.011 197.662C153.661 197.409 153.188 197.409 152.838 197.662L148.252 200.985C147.468 201.553 146.415 200.786 146.715 199.865L148.463 194.498C148.598 194.086 148.451 193.633 148.099 193.379L143.524 190.064C142.739 189.495 143.142 188.254 144.111 188.254H149.772C150.205 188.254 150.588 187.976 150.723 187.564L152.474 182.19Z" fill="#E5E5E5"/>
<defs>
<clipPath id="clip0_179_264">
<rect width="58.2524" height="88.9906" fill="white" transform="translate(56.6528)"/>
</clipPath>
</defs>
</svg>
