<svg width="167" height="207" viewBox="0 0 167 207" fill="none" xmlns="http://www.w3.org/2000/svg">
<path d="M67.448 122.598L66.86 120.834H62.954L62.366 122.598H60.28L63.71 112.798H66.104L69.548 122.598H67.448ZM63.57 119.028H66.258L64.914 115.024L63.57 119.028ZM75.5301 112.798H77.3361V122.598H75.5301V121.772C74.9981 122.453 74.2421 122.794 73.2621 122.794C72.3194 122.794 71.5121 122.439 70.8401 121.73C70.1774 121.011 69.8461 120.134 69.8461 119.098C69.8461 118.062 70.1774 117.189 70.8401 116.48C71.5121 115.761 72.3194 115.402 73.2621 115.402C74.2421 115.402 74.9981 115.742 75.5301 116.424V112.798ZM72.1981 120.526C72.5714 120.89 73.0381 121.072 73.5981 121.072C74.1581 121.072 74.6201 120.89 74.9841 120.526C75.3481 120.152 75.5301 119.676 75.5301 119.098C75.5301 118.519 75.3481 118.048 74.9841 117.684C74.6201 117.31 74.1581 117.124 73.5981 117.124C73.0381 117.124 72.5714 117.31 72.1981 117.684C71.8341 118.048 71.6521 118.519 71.6521 119.098C71.6521 119.676 71.8341 120.152 72.1981 120.526ZM84.9518 121.73C84.2331 122.439 83.3558 122.794 82.3198 122.794C81.2838 122.794 80.4064 122.439 79.6878 121.73C78.9784 121.011 78.6238 120.134 78.6238 119.098C78.6238 118.062 78.9784 117.189 79.6878 116.48C80.4064 115.761 81.2838 115.402 82.3198 115.402C83.3558 115.402 84.2331 115.761 84.9518 116.48C85.6704 117.189 86.0298 118.062 86.0298 119.098C86.0298 120.134 85.6704 121.011 84.9518 121.73ZM80.9618 120.484C81.3258 120.848 81.7784 121.03 82.3198 121.03C82.8611 121.03 83.3138 120.848 83.6778 120.484C84.0418 120.12 84.2238 119.658 84.2238 119.098C84.2238 118.538 84.0418 118.076 83.6778 117.712C83.3138 117.348 82.8611 117.166 82.3198 117.166C81.7784 117.166 81.3258 117.348 80.9618 117.712C80.6071 118.076 80.4298 118.538 80.4298 119.098C80.4298 119.658 80.6071 120.12 80.9618 120.484ZM91.3743 115.402C92.3169 115.402 93.1196 115.761 93.7823 116.48C94.4543 117.189 94.7903 118.062 94.7903 119.098C94.7903 120.134 94.4543 121.011 93.7823 121.73C93.1196 122.439 92.3169 122.794 91.3743 122.794C90.3943 122.794 89.6383 122.453 89.1063 121.772V122.598H87.3003V112.798H89.1063V116.424C89.6383 115.742 90.3943 115.402 91.3743 115.402ZM89.6523 120.526C90.0163 120.89 90.4783 121.072 91.0383 121.072C91.5983 121.072 92.0603 120.89 92.4243 120.526C92.7976 120.152 92.9843 119.676 92.9843 119.098C92.9843 118.519 92.7976 118.048 92.4243 117.684C92.0603 117.31 91.5983 117.124 91.0383 117.124C90.4783 117.124 90.0163 117.31 89.6523 117.684C89.2883 118.048 89.1063 118.519 89.1063 119.098C89.1063 119.676 89.2883 120.152 89.6523 120.526ZM97.59 119.84C97.8326 120.717 98.4906 121.156 99.564 121.156C100.255 121.156 100.777 120.922 101.132 120.456L102.588 121.296C101.897 122.294 100.88 122.794 99.536 122.794C98.3786 122.794 97.45 122.444 96.75 121.744C96.05 121.044 95.7 120.162 95.7 119.098C95.7 118.043 96.0453 117.166 96.736 116.466C97.4266 115.756 98.3133 115.402 99.396 115.402C100.423 115.402 101.267 115.756 101.93 116.466C102.602 117.175 102.938 118.052 102.938 119.098C102.938 119.331 102.915 119.578 102.868 119.84H97.59ZM97.562 118.44H101.132C101.029 117.964 100.815 117.609 100.488 117.376C100.171 117.142 99.8066 117.026 99.396 117.026C98.9106 117.026 98.5093 117.152 98.192 117.404C97.8746 117.646 97.6646 117.992 97.562 118.44ZM53.3823 129.798H55.3143V139.598H53.3823V129.798ZM57.0444 139.598V129.378H58.8504V139.598H57.0444ZM60.5034 139.598V129.378H62.3094V139.598H60.5034ZM68.5824 132.598H70.3884V139.598H68.5824V138.814C68.1437 139.467 67.4484 139.794 66.4964 139.794C65.7311 139.794 65.0964 139.537 64.5924 139.024C64.0977 138.51 63.8504 137.801 63.8504 136.896V132.598H65.6564V136.672C65.6564 137.138 65.7824 137.498 66.0344 137.75C66.2864 137.992 66.6224 138.114 67.0424 138.114C67.5091 138.114 67.8824 137.969 68.1624 137.68C68.4424 137.39 68.5824 136.956 68.5824 136.378V132.598ZM73.6538 134.586C73.6538 134.772 73.7751 134.926 74.0178 135.048C74.2698 135.16 74.5731 135.262 74.9278 135.356C75.2824 135.44 75.6371 135.552 75.9918 135.692C76.3464 135.822 76.6451 136.046 76.8878 136.364C77.1398 136.681 77.2658 137.078 77.2658 137.554C77.2658 138.272 76.9951 138.828 76.4538 139.22C75.9218 139.602 75.2544 139.794 74.4518 139.794C73.0144 139.794 72.0344 139.238 71.5118 138.128L73.0798 137.246C73.2851 137.852 73.7424 138.156 74.4518 138.156C75.0958 138.156 75.4178 137.955 75.4178 137.554C75.4178 137.367 75.2918 137.218 75.0398 137.106C74.7971 136.984 74.4984 136.877 74.1438 136.784C73.7891 136.69 73.4344 136.574 73.0798 136.434C72.7251 136.294 72.4218 136.074 72.1698 135.776C71.9271 135.468 71.8058 135.085 71.8058 134.628C71.8058 133.937 72.0578 133.396 72.5618 133.004C73.0751 132.602 73.7098 132.402 74.4658 132.402C75.0351 132.402 75.5531 132.532 76.0198 132.794C76.4864 133.046 76.8551 133.41 77.1258 133.886L75.5858 134.726C75.3618 134.25 74.9884 134.012 74.4658 134.012C74.2324 134.012 74.0364 134.063 73.8778 134.166C73.7284 134.268 73.6538 134.408 73.6538 134.586ZM82.2262 134.334H80.6442V137.246C80.6442 137.488 80.7048 137.666 80.8262 137.778C80.9475 137.89 81.1248 137.955 81.3582 137.974C81.5915 137.983 81.8808 137.978 82.2262 137.96V139.598C80.9848 139.738 80.1075 139.621 79.5942 139.248C79.0902 138.874 78.8382 138.207 78.8382 137.246V134.334H77.6202V132.598H78.8382V131.184L80.6442 130.638V132.598H82.2262V134.334ZM85.4149 133.802C85.5829 133.354 85.8582 133.018 86.2409 132.794C86.6329 132.57 87.0669 132.458 87.5429 132.458V134.474C86.9922 134.408 86.4975 134.52 86.0589 134.81C85.6295 135.099 85.4149 135.58 85.4149 136.252V139.598H83.6089V132.598H85.4149V133.802ZM93.6593 132.598H95.4653V139.598H93.6593V138.772C93.118 139.453 92.3573 139.794 91.3773 139.794C90.444 139.794 89.6413 139.439 88.9693 138.73C88.3067 138.011 87.9753 137.134 87.9753 136.098C87.9753 135.062 88.3067 134.189 88.9693 133.48C89.6413 132.761 90.444 132.402 91.3773 132.402C92.3573 132.402 93.118 132.742 93.6593 133.424V132.598ZM90.3273 137.526C90.6913 137.89 91.1533 138.072 91.7133 138.072C92.2733 138.072 92.7353 137.89 93.0993 137.526C93.4727 137.152 93.6593 136.676 93.6593 136.098C93.6593 135.519 93.4727 135.048 93.0993 134.684C92.7353 134.31 92.2733 134.124 91.7133 134.124C91.1533 134.124 90.6913 134.31 90.3273 134.684C89.9633 135.048 89.7813 135.519 89.7813 136.098C89.7813 136.676 89.9633 137.152 90.3273 137.526ZM101.107 134.334H99.525V137.246C99.525 137.488 99.5857 137.666 99.707 137.778C99.8283 137.89 100.006 137.955 100.239 137.974C100.472 137.983 100.762 137.978 101.107 137.96V139.598C99.8657 139.738 98.9883 139.621 98.475 139.248C97.971 138.874 97.719 138.207 97.719 137.246V134.334H96.501V132.598H97.719V131.184L99.525 130.638V132.598H101.107V134.334ZM108.126 138.73C107.407 139.439 106.53 139.794 105.494 139.794C104.458 139.794 103.58 139.439 102.862 138.73C102.152 138.011 101.798 137.134 101.798 136.098C101.798 135.062 102.152 134.189 102.862 133.48C103.58 132.761 104.458 132.402 105.494 132.402C106.53 132.402 107.407 132.761 108.126 133.48C108.844 134.189 109.204 135.062 109.204 136.098C109.204 137.134 108.844 138.011 108.126 138.73ZM104.136 137.484C104.5 137.848 104.952 138.03 105.494 138.03C106.035 138.03 106.488 137.848 106.852 137.484C107.216 137.12 107.398 136.658 107.398 136.098C107.398 135.538 107.216 135.076 106.852 134.712C106.488 134.348 106.035 134.166 105.494 134.166C104.952 134.166 104.5 134.348 104.136 134.712C103.781 135.076 103.604 135.538 103.604 136.098C103.604 136.658 103.781 137.12 104.136 137.484ZM112.28 133.802C112.448 133.354 112.723 133.018 113.106 132.794C113.498 132.57 113.932 132.458 114.408 132.458V134.474C113.857 134.408 113.363 134.52 112.924 134.81C112.495 135.099 112.28 135.58 112.28 136.252V139.598H110.474V132.598H112.28V133.802Z" fill="#828282"/>
<path d="M42.585 3.7832H124.345V84.7881H42.585V3.7832Z" fill="url(#paint0_radial_179_240)"/>
<path d="M42.585 3.78375H124.345V84.7886H42.585V3.78375ZM38.8694 88.5724H128.079V0H38.8694V88.5724ZM97.3003 31.5797C97.3003 31.2705 97.4075 31.1249 97.7469 31.1249H103.588C103.892 31.1249 104.035 31.2341 104.035 31.5797V61.4495C104.035 61.7587 103.963 61.9043 103.588 61.9043H97.8184C97.4432 61.9043 97.3361 61.7224 97.3361 61.4131V31.5797H97.3003ZM96.8895 22.9753C96.8895 20.5559 98.5686 19.1188 100.677 19.1188C102.945 19.1188 104.464 20.6651 104.464 22.9753C104.464 25.4675 102.874 26.8319 100.605 26.8319C98.4615 26.85 96.8895 25.4857 96.8895 22.9753ZM80.1694 44.0224C79.1333 39.8203 76.6682 30.6702 75.7393 26.2315H75.6678C74.8819 30.652 72.9169 38.1467 71.3628 44.0224H80.1694ZM69.8444 50.1528L66.9148 61.5041C66.8434 61.8133 66.7362 61.8861 66.361 61.8861H60.8949C60.5197 61.8861 60.4483 61.7769 60.5197 61.3221L71.077 23.703C71.2556 23.0299 71.3806 22.4114 71.4521 20.5559C71.4521 20.2831 71.5593 20.1739 71.7558 20.1739H79.562C79.83 20.1739 79.9372 20.2467 80.0086 20.5559L91.8342 61.3949C91.9056 61.7042 91.8342 61.8861 91.5305 61.8861H85.3676C85.064 61.8861 84.8853 61.8133 84.8139 61.5404L81.7592 50.1528H69.8444Z" fill="#FF7F18"/>
<path d="M12.0853 183.19C12.3851 182.269 13.687 182.269 13.9869 183.19L15.738 188.564C15.8721 188.976 16.2559 189.254 16.6888 189.254H22.3495C23.3189 189.254 23.7213 190.495 22.9363 191.064L18.3614 194.379C18.0099 194.633 17.8629 195.086 17.9973 195.498L19.7459 200.865C20.0459 201.786 18.9926 202.553 18.2084 201.985L13.6228 198.662C13.2728 198.409 12.7994 198.409 12.4494 198.662L7.86382 201.985C7.07956 202.553 6.02627 201.786 6.3263 200.865L8.07487 195.498C8.20932 195.086 8.06224 194.633 7.71078 194.379L3.13591 191.064C2.3509 190.495 2.75323 189.254 3.72263 189.254H9.38338C9.81631 189.254 10.2001 188.976 10.3342 188.564L12.0853 183.19Z" fill="black"/>
<path d="M47.1825 183.19C47.4823 182.269 48.7842 182.269 49.0841 183.19L50.8352 188.564C50.9693 188.976 51.353 189.254 51.786 189.254H57.4467C58.4161 189.254 58.8184 190.495 58.0334 191.064L53.4586 194.379C53.1071 194.633 52.96 195.086 53.0945 195.498L54.843 200.865C55.1431 201.786 54.0898 202.553 53.3055 201.985L48.72 198.662C48.3699 198.409 47.8966 198.409 47.5465 198.662L42.961 201.985C42.1767 202.553 41.1234 201.786 41.4235 200.865L43.172 195.498C43.3065 195.086 43.1594 194.633 42.808 194.379L38.2331 191.064C37.4481 190.495 37.8504 189.254 38.8198 189.254H44.4806C44.9135 189.254 45.2972 188.976 45.4314 188.564L47.1825 183.19Z" fill="black"/>
<path d="M82.2796 183.19C82.5795 182.269 83.8814 182.269 84.1812 183.19L85.9323 188.564C86.0664 188.976 86.4502 189.254 86.8831 189.254H92.5439C93.5133 189.254 93.9156 190.495 93.1306 191.064L88.5557 194.379C88.2043 194.633 88.0572 195.086 88.1916 195.498L89.9402 200.865C90.2402 201.786 89.1869 202.553 88.4027 201.985L83.8171 198.662C83.4671 198.409 82.9937 198.409 82.6437 198.662L78.0582 201.985C77.2739 202.553 76.2206 201.786 76.5206 200.865L78.2692 195.498C78.4037 195.086 78.2566 194.633 77.9051 194.379L73.3302 191.064C72.5452 190.495 72.9476 189.254 73.917 189.254H79.5777C80.0106 189.254 80.3944 188.976 80.5285 188.564L82.2796 183.19Z" fill="black"/>
<path d="M117.377 183.19C117.677 182.269 118.979 182.269 119.278 183.19L121.029 188.564C121.164 188.976 121.547 189.254 121.98 189.254H127.641C128.61 189.254 129.013 190.495 128.228 191.064L123.653 194.379C123.301 194.633 123.154 195.086 123.289 195.498L125.037 200.865C125.337 201.786 124.284 202.553 123.5 201.985L118.914 198.662C118.564 198.409 118.091 198.409 117.741 198.662L113.155 201.985C112.371 202.553 111.318 201.786 111.618 200.865L113.366 195.498C113.501 195.086 113.354 194.633 113.002 194.379L108.427 191.064C107.642 190.495 108.045 189.254 109.014 189.254H114.675C115.108 189.254 115.492 188.976 115.626 188.564L117.377 183.19Z" fill="#E5E5E5"/>
<path d="M152.474 183.19C152.774 182.269 154.076 182.269 154.376 183.19L156.127 188.564C156.261 188.976 156.645 189.254 157.077 189.254H162.738C163.708 189.254 164.11 190.495 163.325 191.064L158.75 194.379C158.399 194.633 158.252 195.086 158.386 195.498L160.135 200.865C160.435 201.786 159.381 202.553 158.597 201.985L154.011 198.662C153.661 198.409 153.188 198.409 152.838 198.662L148.252 201.985C147.468 202.553 146.415 201.786 146.715 200.865L148.464 195.498C148.598 195.086 148.451 194.633 148.099 194.379L143.525 191.064C142.74 190.495 143.142 189.254 144.111 189.254H149.772C150.205 189.254 150.589 188.976 150.723 188.564L152.474 183.19Z" fill="#E5E5E5"/>
<defs>
<radialGradient id="paint0_radial_179_240" cx="0" cy="0" r="1" gradientUnits="userSpaceOnUse" gradientTransform="translate(69.5396 21.9605) scale(62.1406 61.2673)">
<stop stop-color="#423325" stop-opacity="0.98"/>
<stop offset="1" stop-color="#1C0A00"/>
</radialGradient>
</defs>
</svg>
