<svg width="167" height="207" viewBox="0 0 167 207" fill="none" xmlns="http://www.w3.org/2000/svg">
<path d="M42.2261 3.7793H123.891V84.6339H42.2261V3.7793Z" fill="url(#paint0_radial_179_225)"/>
<path d="M42.2261 3.77927H123.891V84.6338H42.2261V3.77927ZM38.5132 88.4131H127.586V0H38.5132V88.4131ZM98.5796 36.2846C95.6522 36.2846 94.6525 37.7927 94.6525 39.0464C94.6525 40.4091 95.313 41.3539 99.2579 43.4253C105.077 46.296 106.898 49.0578 106.898 53.0915C106.898 59.1419 102.364 62.3943 96.2412 62.3943C93.0103 62.3943 90.2257 61.722 88.637 60.7772C88.3692 60.6682 88.3335 60.4683 88.3335 60.1776V54.5995C88.3335 54.218 88.512 54.109 88.7798 54.2906C91.1182 55.8351 93.7957 56.5255 96.2412 56.5255C99.1687 56.5255 100.4 55.2718 100.4 53.582C100.4 52.2193 99.5435 51.0201 95.795 49.0396C90.5291 46.4777 88.3335 43.8795 88.3335 39.5188C88.3335 34.6494 92.0821 30.5975 98.5796 30.5975C101.775 30.5975 104.006 31.0881 105.22 31.6514C105.523 31.8331 105.595 32.142 105.595 32.4145V37.5928C105.595 37.9017 105.416 38.0834 105.041 37.9744C103.399 36.9205 100.989 36.2846 98.5796 36.2846ZM66.6632 40.7725C67.52 40.8452 68.1805 40.8452 69.662 40.8452C73.9997 40.8452 78.0874 39.3008 78.0874 33.2866C78.0874 28.4899 75.16 26.0733 70.2154 26.0733C68.7338 26.0733 67.3237 26.146 66.6453 26.1823L66.6632 40.7725ZM60.0407 20.7133C60.0407 20.4408 60.5584 20.2591 60.8618 20.2591C63.2359 20.15 66.7703 20.0774 70.4296 20.0774C80.7114 20.0774 84.7277 25.8189 84.7277 33.1413C84.7277 42.7348 77.8911 46.8593 69.5014 46.8593C68.0912 46.8593 67.6093 46.7866 66.6096 46.7866V61.2859C66.6096 61.5948 66.5025 61.7402 66.1634 61.7402H60.487C60.1835 61.7402 60.0407 61.6311 60.0407 61.2859V20.7133Z" fill="#31C5F0"/>
<path d="M68.3388 123.619L67.7508 121.855H63.8448L63.2568 123.619H61.1708L64.6008 113.819H66.9948L70.4388 123.619H68.3388ZM64.4608 120.049H67.1488L65.8048 116.045L64.4608 120.049ZM76.4209 113.819H78.2269V123.619H76.4209V122.793C75.8889 123.474 75.1329 123.815 74.1529 123.815C73.2103 123.815 72.4029 123.46 71.7309 122.751C71.0683 122.032 70.7369 121.155 70.7369 120.119C70.7369 119.083 71.0683 118.21 71.7309 117.501C72.4029 116.782 73.2103 116.423 74.1529 116.423C75.1329 116.423 75.8889 116.764 76.4209 117.445V113.819ZM73.0889 121.547C73.4623 121.911 73.9289 122.093 74.4889 122.093C75.0489 122.093 75.5109 121.911 75.8749 121.547C76.2389 121.174 76.4209 120.698 76.4209 120.119C76.4209 119.54 76.2389 119.069 75.8749 118.705C75.5109 118.332 75.0489 118.145 74.4889 118.145C73.9289 118.145 73.4623 118.332 73.0889 118.705C72.7249 119.069 72.5429 119.54 72.5429 120.119C72.5429 120.698 72.7249 121.174 73.0889 121.547ZM85.8426 122.751C85.1239 123.46 84.2466 123.815 83.2106 123.815C82.1746 123.815 81.2973 123.46 80.5786 122.751C79.8693 122.032 79.5146 121.155 79.5146 120.119C79.5146 119.083 79.8693 118.21 80.5786 117.501C81.2973 116.782 82.1746 116.423 83.2106 116.423C84.2466 116.423 85.1239 116.782 85.8426 117.501C86.5613 118.21 86.9206 119.083 86.9206 120.119C86.9206 121.155 86.5613 122.032 85.8426 122.751ZM81.8526 121.505C82.2166 121.869 82.6693 122.051 83.2106 122.051C83.7519 122.051 84.2046 121.869 84.5686 121.505C84.9326 121.141 85.1146 120.679 85.1146 120.119C85.1146 119.559 84.9326 119.097 84.5686 118.733C84.2046 118.369 83.7519 118.187 83.2106 118.187C82.6693 118.187 82.2166 118.369 81.8526 118.733C81.4979 119.097 81.3206 119.559 81.3206 120.119C81.3206 120.679 81.4979 121.141 81.8526 121.505ZM92.2651 116.423C93.2078 116.423 94.0104 116.782 94.6731 117.501C95.3451 118.21 95.6811 119.083 95.6811 120.119C95.6811 121.155 95.3451 122.032 94.6731 122.751C94.0104 123.46 93.2078 123.815 92.2651 123.815C91.2851 123.815 90.5291 123.474 89.9971 122.793V123.619H88.1911V113.819H89.9971V117.445C90.5291 116.764 91.2851 116.423 92.2651 116.423ZM90.5431 121.547C90.9071 121.911 91.3691 122.093 91.9291 122.093C92.4891 122.093 92.9511 121.911 93.3151 121.547C93.6884 121.174 93.8751 120.698 93.8751 120.119C93.8751 119.54 93.6884 119.069 93.3151 118.705C92.9511 118.332 92.4891 118.145 91.9291 118.145C91.3691 118.145 90.9071 118.332 90.5431 118.705C90.1791 119.069 89.9971 119.54 89.9971 120.119C89.9971 120.698 90.1791 121.174 90.5431 121.547ZM98.4808 120.861C98.7235 121.738 99.3815 122.177 100.455 122.177C101.145 122.177 101.668 121.944 102.023 121.477L103.479 122.317C102.788 123.316 101.771 123.815 100.427 123.815C99.2695 123.815 98.3408 123.465 97.6408 122.765C96.9408 122.065 96.5908 121.183 96.5908 120.119C96.5908 119.064 96.9361 118.187 97.6268 117.487C98.3175 116.778 99.2041 116.423 100.287 116.423C101.313 116.423 102.158 116.778 102.821 117.487C103.493 118.196 103.829 119.074 103.829 120.119C103.829 120.352 103.805 120.6 103.759 120.861H98.4808ZM98.4528 119.461H102.023C101.92 118.985 101.705 118.63 101.379 118.397C101.061 118.164 100.697 118.047 100.287 118.047C99.8015 118.047 99.4001 118.173 99.0828 118.425C98.7655 118.668 98.5555 119.013 98.4528 119.461ZM52.602 130.819C53.5446 130.819 54.338 131.136 54.982 131.771C55.626 132.406 55.948 133.185 55.948 134.109C55.948 135.033 55.626 135.812 54.982 136.447C54.338 137.082 53.5446 137.399 52.602 137.399H50.88V140.619H48.948V130.819H52.602ZM52.602 135.593C53.0126 135.593 53.3533 135.453 53.624 135.173C53.8946 134.884 54.03 134.529 54.03 134.109C54.03 133.68 53.8946 133.325 53.624 133.045C53.3533 132.765 53.0126 132.625 52.602 132.625H50.88V135.593H52.602ZM61.0138 133.423C61.7791 133.423 62.4091 133.68 62.9038 134.193C63.4078 134.706 63.6598 135.416 63.6598 136.321V140.619H61.8538V136.545C61.8538 136.078 61.7278 135.724 61.4758 135.481C61.2238 135.229 60.8878 135.103 60.4678 135.103C60.0011 135.103 59.6278 135.248 59.3478 135.537C59.0678 135.826 58.9278 136.26 58.9278 136.839V140.619H57.1218V130.819H58.9278V134.403C59.3664 133.75 60.0618 133.423 61.0138 133.423ZM71.1659 139.751C70.4472 140.46 69.5699 140.815 68.5339 140.815C67.4979 140.815 66.6205 140.46 65.9019 139.751C65.1925 139.032 64.8379 138.155 64.8379 137.119C64.8379 136.083 65.1925 135.21 65.9019 134.501C66.6205 133.782 67.4979 133.423 68.5339 133.423C69.5699 133.423 70.4472 133.782 71.1659 134.501C71.8845 135.21 72.2439 136.083 72.2439 137.119C72.2439 138.155 71.8845 139.032 71.1659 139.751ZM67.1759 138.505C67.5399 138.869 67.9925 139.051 68.5339 139.051C69.0752 139.051 69.5279 138.869 69.8919 138.505C70.2559 138.141 70.4379 137.679 70.4379 137.119C70.4379 136.559 70.2559 136.097 69.8919 135.733C69.5279 135.369 69.0752 135.187 68.5339 135.187C67.9925 135.187 67.5399 135.369 67.1759 135.733C66.8212 136.097 66.6439 136.559 66.6439 137.119C66.6439 137.679 66.8212 138.141 67.1759 138.505ZM77.368 135.355H75.786V138.267C75.786 138.51 75.8466 138.687 75.968 138.799C76.0893 138.911 76.2666 138.976 76.5 138.995C76.7333 139.004 77.0226 139 77.368 138.981V140.619C76.1266 140.759 75.2493 140.642 74.736 140.269C74.232 139.896 73.98 139.228 73.98 138.267V135.355H72.762V133.619H73.98V132.205L75.786 131.659V133.619H77.368V135.355ZM84.3866 139.751C83.6679 140.46 82.7906 140.815 81.7546 140.815C80.7186 140.815 79.8412 140.46 79.1226 139.751C78.4132 139.032 78.0586 138.155 78.0586 137.119C78.0586 136.083 78.4132 135.21 79.1226 134.501C79.8412 133.782 80.7186 133.423 81.7546 133.423C82.7906 133.423 83.6679 133.782 84.3866 134.501C85.1052 135.21 85.4646 136.083 85.4646 137.119C85.4646 138.155 85.1052 139.032 84.3866 139.751ZM80.3966 138.505C80.7606 138.869 81.2132 139.051 81.7546 139.051C82.2959 139.051 82.7486 138.869 83.1126 138.505C83.4766 138.141 83.6586 137.679 83.6586 137.119C83.6586 136.559 83.4766 136.097 83.1126 135.733C82.7486 135.369 82.2959 135.187 81.7546 135.187C81.2132 135.187 80.7606 135.369 80.3966 135.733C80.0419 136.097 79.8646 136.559 79.8646 137.119C79.8646 137.679 80.0419 138.141 80.3966 138.505ZM88.2507 135.607C88.2507 135.794 88.372 135.948 88.6147 136.069C88.8667 136.181 89.17 136.284 89.5247 136.377C89.8793 136.461 90.234 136.573 90.5887 136.713C90.9433 136.844 91.242 137.068 91.4847 137.385C91.7367 137.702 91.8627 138.099 91.8627 138.575C91.8627 139.294 91.592 139.849 91.0507 140.241C90.5187 140.624 89.8513 140.815 89.0487 140.815C87.6113 140.815 86.6313 140.26 86.1087 139.149L87.6767 138.267C87.882 138.874 88.3393 139.177 89.0487 139.177C89.6927 139.177 90.0147 138.976 90.0147 138.575C90.0147 138.388 89.8887 138.239 89.6367 138.127C89.394 138.006 89.0953 137.898 88.7407 137.805C88.386 137.712 88.0313 137.595 87.6767 137.455C87.322 137.315 87.0187 137.096 86.7667 136.797C86.524 136.489 86.4027 136.106 86.4027 135.649C86.4027 134.958 86.6547 134.417 87.1587 134.025C87.672 133.624 88.3067 133.423 89.0627 133.423C89.632 133.423 90.15 133.554 90.6167 133.815C91.0833 134.067 91.452 134.431 91.7227 134.907L90.1827 135.747C89.9587 135.271 89.5853 135.033 89.0627 135.033C88.8293 135.033 88.6333 135.084 88.4747 135.187C88.3253 135.29 88.2507 135.43 88.2507 135.607ZM96.9161 133.423C97.6815 133.423 98.3115 133.68 98.8061 134.193C99.3101 134.706 99.5621 135.416 99.5621 136.321V140.619H97.7561V136.545C97.7561 136.078 97.6301 135.724 97.3781 135.481C97.1261 135.229 96.7901 135.103 96.3701 135.103C95.9035 135.103 95.5301 135.248 95.2501 135.537C94.9701 135.826 94.8301 136.26 94.8301 136.839V140.619H93.0241V130.819H94.8301V134.403C95.2688 133.75 95.9641 133.423 96.9161 133.423ZM107.068 139.751C106.35 140.46 105.472 140.815 104.436 140.815C103.4 140.815 102.523 140.46 101.804 139.751C101.095 139.032 100.74 138.155 100.74 137.119C100.74 136.083 101.095 135.21 101.804 134.501C102.523 133.782 103.4 133.423 104.436 133.423C105.472 133.423 106.35 133.782 107.068 134.501C107.787 135.21 108.146 136.083 108.146 137.119C108.146 138.155 107.787 139.032 107.068 139.751ZM103.078 138.505C103.442 138.869 103.895 139.051 104.436 139.051C104.978 139.051 105.43 138.869 105.794 138.505C106.158 138.141 106.34 137.679 106.34 137.119C106.34 136.559 106.158 136.097 105.794 135.733C105.43 135.369 104.978 135.187 104.436 135.187C103.895 135.187 103.442 135.369 103.078 135.733C102.724 136.097 102.546 136.559 102.546 137.119C102.546 137.679 102.724 138.141 103.078 138.505ZM113.491 133.423C114.433 133.423 115.236 133.782 115.899 134.501C116.571 135.21 116.907 136.083 116.907 137.119C116.907 138.155 116.571 139.032 115.899 139.751C115.236 140.46 114.433 140.815 113.491 140.815C112.511 140.815 111.755 140.474 111.223 139.793V143.419H109.417V133.619H111.223V134.445C111.755 133.764 112.511 133.423 113.491 133.423ZM111.769 138.547C112.133 138.911 112.595 139.093 113.155 139.093C113.715 139.093 114.177 138.911 114.541 138.547C114.914 138.174 115.101 137.698 115.101 137.119C115.101 136.54 114.914 136.069 114.541 135.705C114.177 135.332 113.715 135.145 113.155 135.145C112.595 135.145 112.133 135.332 111.769 135.705C111.405 136.069 111.223 136.54 111.223 137.119C111.223 137.698 111.405 138.174 111.769 138.547Z" fill="#828282"/>
<path d="M12.0853 183.213C12.3851 182.293 13.687 182.293 13.9869 183.213L15.738 188.587C15.8721 188.999 16.2559 189.278 16.6888 189.278H22.3495C23.3189 189.278 23.7213 190.519 22.9363 191.087L18.3614 194.402C18.0099 194.657 17.8629 195.109 17.9973 195.522L19.7459 200.888C20.0459 201.809 18.9926 202.576 18.2084 202.008L13.6228 198.686C13.2728 198.432 12.7994 198.432 12.4494 198.686L7.86382 202.008C7.07956 202.576 6.02627 201.809 6.3263 200.888L8.07487 195.522C8.20932 195.109 8.06224 194.657 7.71078 194.402L3.13591 191.087C2.3509 190.519 2.75323 189.278 3.72263 189.278H9.38338C9.81631 189.278 10.2001 188.999 10.3342 188.587L12.0853 183.213Z" fill="black"/>
<path d="M47.1822 183.213C47.4821 182.293 48.784 182.293 49.0838 183.213L50.8349 188.587C50.969 188.999 51.3528 189.278 51.7857 189.278H57.4465C58.4159 189.278 58.8182 190.519 58.0332 191.087L53.4583 194.402C53.1069 194.657 52.9598 195.109 53.0942 195.522L54.8428 200.888C55.1428 201.809 54.0895 202.576 53.3053 202.008L48.7197 198.686C48.3697 198.432 47.8963 198.432 47.5463 198.686L42.9607 202.008C42.1765 202.576 41.1232 201.809 41.4232 200.888L43.1718 195.522C43.3062 195.109 43.1592 194.657 42.8077 194.402L38.2328 191.087C37.4478 190.519 37.8502 189.278 38.8196 189.278H44.4803C44.9132 189.278 45.297 188.999 45.4311 188.587L47.1822 183.213Z" fill="black"/>
<path d="M82.2794 183.213C82.5792 182.293 83.8811 182.293 84.181 183.213L85.9321 188.587C86.0662 188.999 86.45 189.278 86.8829 189.278H92.5436C93.513 189.278 93.9154 190.519 93.1304 191.087L88.5555 194.402C88.204 194.657 88.0569 195.109 88.1914 195.522L89.94 200.888C90.24 201.809 89.1867 202.576 88.4024 202.008L83.8169 198.686C83.4669 198.432 82.9935 198.432 82.6435 198.686L78.0579 202.008C77.2737 202.576 76.2204 201.809 76.5204 200.888L78.269 195.522C78.4034 195.109 78.2563 194.657 77.9049 194.402L73.33 191.087C72.545 190.519 72.9473 189.278 73.9167 189.278H79.5775C80.0104 189.278 80.3942 188.999 80.5283 188.587L82.2794 183.213Z" fill="black"/>
<path d="M117.377 183.213C117.676 182.293 118.978 182.293 119.278 183.213L121.029 188.587C121.163 188.999 121.547 189.278 121.98 189.278H127.641C128.61 189.278 129.013 190.519 128.228 191.087L123.653 194.402C123.301 194.657 123.154 195.109 123.289 195.522L125.037 200.888C125.337 201.809 124.284 202.576 123.5 202.008L118.914 198.686C118.564 198.432 118.091 198.432 117.741 198.686L113.155 202.008C112.371 202.576 111.318 201.809 111.618 200.888L113.366 195.522C113.501 195.109 113.354 194.657 113.002 194.402L108.427 191.087C107.642 190.519 108.044 189.278 109.014 189.278H114.675C115.108 189.278 115.491 188.999 115.625 188.587L117.377 183.213Z" fill="black"/>
<path d="M152.474 183.213C152.774 182.293 154.075 182.293 154.375 183.213L156.126 188.587C156.261 188.999 156.644 189.278 157.077 189.278H162.738C163.707 189.278 164.11 190.519 163.325 191.087L158.75 194.402C158.398 194.657 158.251 195.109 158.386 195.522L160.134 200.888C160.434 201.809 159.381 202.576 158.597 202.008L154.011 198.686C153.661 198.432 153.188 198.432 152.838 198.686L148.252 202.008C147.468 202.576 146.415 201.809 146.715 200.888L148.463 195.522C148.598 195.109 148.451 194.657 148.099 194.402L143.524 191.087C142.739 190.519 143.142 189.278 144.111 189.278H149.772C150.205 189.278 150.588 188.999 150.723 188.587L152.474 183.213Z" fill="#E5E5E5"/>
<defs>
<radialGradient id="paint0_radial_179_225" cx="0" cy="0" r="1" gradientUnits="userSpaceOnUse" gradientTransform="translate(69.1305 21.9191) scale(62.0565 61.1565)">
<stop stop-color="#34364E" stop-opacity="0.98"/>
<stop offset="1" stop-color="#0C0824"/>
</radialGradient>
</defs>
</svg>
